<svg width="65" height="65" xmlns="http://www.w3.org/2000/svg" fill="none">

 <g>
  <title>Layer 1</title>
  <rect stroke="null" id="svg_12" height="65" width="66" y="0" x="-0.02381" stroke-width="4" fill="#535ff2"/>
  <g stroke="null" id="svg_14">
   <path stroke="#ffffff" id="svg_1" stroke-linejoin="round" stroke-width="4" fill="none" d="m16.40475,19.38491c0,-1.44865 1.20102,-2.62302 2.68254,-2.62302l22.60614,0l6.90182,6.30093l0,22.55228c0,1.44869 -1.20097,2.62302 -2.68254,2.62302l-26.82542,0c-1.48152,0 -2.68254,-1.17433 -2.68254,-2.62302l0,-26.23018z"/>
   <path stroke="null" id="svg_2" fill="none" d="m32.50742,16.76189l-0.00742,6.45665c0,0.29719 -0.40032,0.53807 -0.89418,0.53807l-7.15344,0c-0.49386,0 -0.89418,-0.24088 -0.89418,-0.53807l0,-6.45665" clip-rule="evenodd" fill-rule="evenodd"/>
   <path stroke="#ffffff" id="svg_3" stroke-linejoin="round" stroke-width="4" d="m32.50742,16.76189l-0.00742,6.45665c0,0.29719 -0.40032,0.53807 -0.89418,0.53807l-7.15344,0c-0.49386,0 -0.89418,-0.24088 -0.89418,-0.53807l0,-6.45665l8.94923,0z"/>
   <path stroke="#ffffff" id="svg_4" stroke-linejoin="round" stroke-linecap="round" stroke-width="4" d="m19.08729,16.76189l22.60614,0"/>
   <path stroke="#ffffff" id="svg_5" stroke-linejoin="round" stroke-linecap="round" stroke-width="4" d="m23.55819,34.24868l17.88361,0"/>
   <path stroke="#ffffff" id="svg_6" stroke-linejoin="round" stroke-linecap="round" stroke-width="4" d="m23.55819,41.2434l8.94923,0"/>
  </g>
 </g>
</svg>